<?xml version="1.0" standalone="no"?>
<!DOCTYPE svg PUBLIC "-//W3C//DTD SVG 20010904//EN"
 "http://www.w3.org/TR/2001/REC-SVG-20010904/DTD/svg10.dtd">
<svg version="1.0" xmlns="http://www.w3.org/2000/svg"
 width="229.000000pt" height="82.000000pt" viewBox="0 0 229.000000 82.000000"
 preserveAspectRatio="xMidYMid meet">

<g transform="translate(0.000000,82.000000) scale(0.100000,-0.100000)"
fill="#000000" stroke="none">
<path d="M384 749 c-47 -52 -112 -145 -144 -209 -33 -65 -39 -164 -12 -216
107 -208 413 -137 412 96 -1 69 -81 218 -177 329 l-38 43 -41 -43z m79 -126
c55 -76 97 -166 97 -209 0 -79 -60 -134 -144 -134 -36 0 -52 6 -81 31 -48 42
-60 92 -39 156 16 48 112 203 125 203 4 0 23 -21 42 -47z"/>
<path d="M198 720 c-189 -135 -212 -417 -48 -581 154 -154 399 -152 547 4 111
118 140 259 83 409 -25 67 -98 152 -160 187 -50 28 -50 28 13 -66 72 -109 100
-192 95 -278 -11 -161 -125 -275 -285 -283 -94 -5 -157 16 -223 75 -141 127
-140 297 3 506 26 37 43 67 39 67 -5 0 -34 -18 -64 -40z"/>
<path d="M980 585 c0 -50 3 -65 14 -65 10 0 16 13 18 38 l3 37 23 -37 c36 -59
52 -50 52 27 0 51 -3 65 -15 65 -11 0 -15 -11 -15 -42 l0 -43 -28 42 c-39 62
-52 56 -52 -22z"/>
<path d="M1131 590 c-22 -61 -22 -85 1 -62 15 15 68 16 68 2 0 -5 7 -10 15
-10 19 0 19 -5 -8 65 -31 81 -48 82 -76 5z m52 0 c3 -13 0 -23 -9 -27 -21 -8
-26 1 -18 31 7 29 19 27 27 -4z"/>
<path d="M1256 635 c-19 -19 -22 -85 -4 -103 24 -24 98 -9 98 20 0 4 -7 8 -15
8 -8 0 -15 -4 -15 -10 0 -5 -11 -10 -25 -10 -23 0 -25 4 -25 40 0 48 21 62 50
35 23 -21 39 -12 24 13 -15 23 -67 27 -88 7z"/>
<path d="M1370 585 c0 -51 3 -65 15 -65 12 0 15 14 15 65 0 51 -3 65 -15 65
-12 0 -15 -14 -15 -65z"/>
<path d="M1436 634 c-18 -18 -21 -66 -6 -95 12 -22 68 -27 88 -7 7 7 12 30 12
53 0 23 -5 46 -12 53 -17 17 -64 15 -82 -4z m64 -25 c18 -32 4 -71 -23 -67
-35 5 -38 88 -3 88 9 0 20 -9 26 -21z"/>
<path d="M1560 585 c0 -37 4 -65 10 -65 6 0 10 19 10 43 l0 42 26 -42 c38 -64
54 -57 54 23 0 48 -3 65 -12 62 -7 -3 -14 -22 -16 -43 l-3 -38 -25 41 c-14 23
-29 42 -35 42 -5 0 -9 -29 -9 -65z"/>
<path d="M1702 588 c-22 -61 -22 -82 0 -60 15 15 68 16 68 2 0 -5 7 -10 16
-10 9 0 14 6 11 13 -2 6 -13 36 -23 65 -25 71 -44 68 -72 -10z m51 2 c6 -23
-10 -37 -24 -23 -10 10 -2 43 11 43 4 0 10 -9 13 -20z"/>
<path d="M1820 586 l0 -66 45 0 c25 0 45 5 45 10 0 6 -13 10 -29 10 -29 0 -30
2 -33 52 -2 30 -8 53 -15 56 -10 3 -13 -14 -13 -62z"/>
<path d="M1930 586 c0 -53 3 -66 15 -66 13 0 15 11 13 62 -2 38 -8 63 -15 66
-10 3 -13 -14 -13 -62z"/>
<path d="M1980 585 c0 -50 3 -65 14 -65 10 0 16 13 18 38 l3 37 23 -37 c36
-59 52 -50 52 27 0 51 -3 65 -15 65 -11 0 -15 -11 -15 -42 l0 -43 -28 42 c-39
62 -52 56 -52 -22z"/>
<path d="M2110 585 c0 -51 3 -65 15 -65 12 0 15 14 15 65 0 51 -3 65 -15 65
-12 0 -15 -14 -15 -65z"/>
<path d="M2170 635 c-18 -22 -5 -44 35 -61 19 -8 35 -19 35 -24 0 -14 -47 -13
-56 1 -4 8 -9 8 -18 -1 -15 -15 9 -30 50 -30 65 0 70 56 6 72 -18 5 -32 13
-32 19 0 16 29 22 45 9 20 -17 32 -5 15 15 -16 19 -64 19 -80 0z"/>
<path d="M980 395 c0 -51 3 -65 15 -65 10 0 15 10 15 28 l1 27 20 -27 c11 -16
27 -28 35 -28 20 0 17 10 -12 41 l-25 26 26 32 c31 35 14 43 -22 9 l-23 -21 0
21 c0 13 -6 22 -15 22 -12 0 -15 -14 -15 -65z"/>
<path d="M1100 395 c0 -51 3 -65 15 -65 9 0 15 9 15 25 0 14 6 25 13 25 8 0
19 -11 25 -25 6 -14 19 -25 27 -25 13 0 14 4 4 21 -8 16 -8 28 0 46 18 40 -1
63 -54 63 l-45 0 0 -65z m75 25 c0 -8 -10 -16 -22 -18 -18 -3 -23 2 -23 18 0
16 5 21 23 18 12 -2 22 -10 22 -18z"/>
<path d="M1263 443 c-3 -10 -14 -39 -24 -65 -15 -39 -16 -48 -5 -48 8 0 16 7
20 15 3 8 17 15 31 15 14 0 28 -7 31 -15 4 -8 12 -15 20 -15 11 0 8 14 -10 63
-23 63 -50 85 -63 50z m37 -50 c0 -7 -7 -13 -15 -13 -16 0 -19 9 -9 35 5 13 8
14 15 3 5 -7 9 -19 9 -25z"/>
<path d="M1360 408 c0 -62 11 -78 57 -78 40 0 53 21 53 84 0 34 -4 46 -14 46
-11 0 -16 -15 -18 -52 -3 -45 -6 -53 -23 -53 -17 0 -21 8 -25 49 -7 71 -30 73
-30 4z"/>
<path d="M1490 450 c0 -5 16 -10 35 -10 34 0 35 -1 35 -40 0 -43 -21 -63 -43
-41 -15 15 -27 14 -27 -3 0 -30 74 -36 90 -7 5 11 10 40 10 65 l0 46 -50 0
c-27 0 -50 -4 -50 -10z"/>
<path d="M1620 441 c-5 -11 -10 -32 -10 -46 0 -44 17 -65 53 -65 44 0 57 15
57 65 0 23 -5 46 -12 53 -20 20 -76 15 -88 -7z m74 -26 c8 -32 -10 -67 -32
-63 -17 3 -28 47 -18 74 9 24 43 16 50 -11z"/>
<path d="M1009 266 c-31 -15 -39 -84 -14 -110 28 -27 95 -14 95 19 0 19 -9 19
-31 -1 -29 -26 -49 -11 -49 36 0 36 2 40 25 40 14 0 25 -4 25 -10 0 -5 7 -10
15 -10 29 0 12 29 -26 43 -9 3 -27 0 -40 -7z"/>
<path d="M1753 270 c-38 -15 -24 -70 18 -70 9 0 22 -7 29 -15 17 -20 -15 -33
-42 -16 -25 15 -35 7 -18 -14 15 -18 61 -20 78 -3 23 23 13 48 -23 64 -47 19
-46 38 3 30 l37 -6 -24 20 c-26 22 -27 22 -58 10z"/>
<path d="M1110 205 l0 -65 45 0 c25 0 45 5 45 10 0 6 -13 10 -30 10 -23 0 -30
4 -30 20 0 16 7 20 30 20 17 0 30 5 30 10 0 6 -13 10 -30 10 -20 0 -30 5 -30
15 0 10 10 15 30 15 17 0 30 5 30 10 0 6 -20 10 -45 10 l-45 0 0 -65z"/>
<path d="M1230 205 c0 -37 4 -65 10 -65 6 0 10 19 10 42 l0 41 30 -41 c17 -23
35 -42 40 -42 6 0 10 29 10 65 0 51 -3 65 -15 65 -11 0 -15 -11 -15 -37 l0
-38 -25 38 c-14 20 -30 37 -35 37 -6 0 -10 -29 -10 -65z"/>
<path d="M1350 260 c0 -5 9 -10 20 -10 18 0 20 -7 20 -55 0 -30 5 -55 10 -55
6 0 10 25 10 55 0 48 2 55 20 55 11 0 20 5 20 10 0 6 -22 10 -50 10 -27 0 -50
-4 -50 -10z"/>
<path d="M1470 206 c0 -52 3 -66 15 -66 9 0 15 9 15 25 0 14 6 25 13 25 8 0
19 -11 25 -25 6 -14 19 -25 28 -25 15 0 15 2 -1 26 -12 19 -14 29 -5 39 6 8
10 24 8 37 -3 20 -10 23 -50 26 l-48 3 0 -65z m75 24 c0 -8 -10 -16 -22 -18
-18 -3 -23 2 -23 18 0 16 5 21 23 18 12 -2 22 -10 22 -18z"/>
<path d="M1637 263 c-5 -8 -47 -116 -47 -120 0 -11 29 0 34 12 8 21 53 19 65
-2 21 -38 24 0 4 55 -18 52 -43 76 -56 55z m30 -69 c-3 -3 -12 -4 -20 -2 -11
2 -12 9 -5 28 l10 25 11 -23 c5 -12 8 -25 4 -28z"/>
</g>
</svg>
