<?xml version="1.0" standalone="no"?>
<!DOCTYPE svg PUBLIC "-//W3C//DTD SVG 20010904//EN"
 "http://www.w3.org/TR/2001/REC-SVG-20010904/DTD/svg10.dtd">
<svg version="1.0" xmlns="http://www.w3.org/2000/svg"
 width="87.000000pt" height="83.000000pt" viewBox="0 0 87.000000 83.000000"
 preserveAspectRatio="xMidYMid meet">

<g transform="translate(0.000000,83.000000) scale(0.100000,-0.100000)"
fill="currentColor" stroke="none">
<path d="M381 755 c-54 -59 -125 -169 -151 -234 -38 -98 -19 -195 53 -258 47
-41 98 -57 164 -50 64 7 105 29 144 77 84 105 56 228 -98 428 -35 45 -66 82
-67 82 -2 0 -22 -20 -45 -45z m83 -123 c58 -80 96 -160 96 -204 0 -82 -53
-138 -132 -138 -76 0 -117 30 -139 101 -9 30 -9 46 5 85 17 50 112 204 126
204 5 0 24 -22 44 -48z"/>
<path d="M233 752 c-104 -56 -183 -182 -191 -307 -23 -362 416 -550 663 -283
72 78 99 146 99 258 0 108 -27 179 -93 252 -45 50 -144 118 -126 87 5 -8 30
-47 56 -87 65 -99 92 -185 87 -270 -5 -84 -28 -133 -93 -198 -188 -189 -514
-54 -519 215 -1 84 27 162 99 271 29 44 52 80 51 80 0 -1 -15 -9 -33 -18z"/>
</g>
</svg>
